<?xml version="1.0" encoding="utf-8"?>
<!-- Generator: Adobe Illustrator 21.1.0, SVG Export Plug-In . SVG Version: 6.00 Build 0)  -->
<svg version="1.1" id="Layer_1" xmlns="http://www.w3.org/2000/svg" xmlns:xlink="http://www.w3.org/1999/xlink" x="0px" y="0px"
	 viewBox="0 0 595.3 841.9" style="enable-background:new 0 0 595.3 841.9;" xml:space="preserve">
<style type="text/css">
	.st0{fill:none;}
	.st1{fill:#F68E20;}
	.st2{fill:#1E293A;}
	.st3{enable-background:new    ;}
</style>
<g>
	<path class="st0" d="M330.8,394.9c0-4.1-2.7-5.2-5-5.2h-10.7v10.1h10.7C329.1,399.9,330.8,397.9,330.8,394.9z"/>
	<path class="st0" d="M264.1,389.8h-11.2v13h11.2c4,0,5.1-1.4,5.1-6.6C269.2,391.5,267.6,389.8,264.1,389.8z"/>
	<path class="st0" d="M326.4,409.5h-11.3v12.6h11.3c3.2,0,5.3-1.6,5.3-6.2C331.8,412.6,330.4,409.5,326.4,409.5z"/>
	<path class="st0" d="M211.9,389.7h-11.7V422h11.7c6.1,0,8.2-5.6,8.2-16C220.1,392.4,217,389.7,211.9,389.7z"/>
	<path class="st0" d="M375.4,389.7h-11.7V422h11.7c6.1,0,8.2-5.6,8.2-16C383.6,392.4,380.5,389.7,375.4,389.7z"/>
	<path class="st1" d="M213.1,379.5h-26v52.7h26c13.9,0,20.1-9.3,20.1-26.2C233.2,392.2,229.5,379.5,213.1,379.5z M211.9,422h-11.7
		v-32.3h11.7c5.1,0,8.2,2.7,8.2,16.3C220.1,416.5,218,422,211.9,422z"/>
	<path class="st1" d="M279.3,401.5v-7.3c0-0.3,0-0.5,0.1-0.7c0.2-1.6,1-3.2,2.2-4.2c-2.2-7.4-8.2-9.8-15.9-9.8h-25.9v52.7h13.1
		v-20.4l7.6,1l8.7,19.4H284l-10.6-20.4c2.4-0.8,5.6-1.8,7.5-6.2c-0.8-1-1.4-2.2-1.5-3.5C279.3,402,279.3,401.8,279.3,401.5z
		 M264.1,402.8h-11.2v-13h11.2c3.5,0,5.1,1.7,5.1,6.4C269.2,401.4,268.1,402.8,264.1,402.8z"/>
	<g>
		<path class="st2" d="M335.5,404.9c5.7-0.7,8.3-6.4,8.3-11.1c0-8.2-4.7-14.2-17-14.2H302v9.2c1.8,1.2,3.1,3.4,3.1,5.5l0,7.3
			c0,1.6-0.8,3.4-2,4.6c1.2,1.2,2,3,2,4.6v7.3c0,2.1-1.3,4.4-3.1,5.5v8.7h25c12.3,0,17.9-5.1,17.9-15.8
			C344.9,410.3,340.8,405.7,335.5,404.9z M315.1,389.7h10.7c2.4,0,5,1,5,5.2c0,3-1.7,5-5,5h-10.7V389.7z M326.4,422.1h-11.3v-12.6
			h11.3c4,0,5.3,3.1,5.3,6.4C331.8,420.5,329.7,422.1,326.4,422.1z"/>
	</g>
	<g>
		<path class="st2" d="M376.6,379.5h-26v52.7h26c13.9,0,20.1-9.3,20.1-26.2C396.7,392.2,393,379.5,376.6,379.5z M375.4,422h-11.7
			v-32.3h11.7c5.1,0,8.2,2.7,8.2,16.3C383.6,416.5,381.4,422,375.4,422z"/>
	</g>
</g>
<path class="st1" d="M300.2,391.2l-6.3-3.6c-1-0.6-2.5-0.6-3.5,0l-6.3,3.6c-0.9,0.5-1.6,1.7-1.7,2.8c0,0.1,0,0.2,0,0.2v7.3
	c0,0.1,0,0.2,0,0.2c0.1,0.9,0.7,2,1.4,2.5l5-2.9c1.2-0.7,2.5-0.8,3.3-0.8c0.9,0,2.1,0.1,3.3,0.8l5,2.9c0.8-0.6,1.4-1.8,1.4-2.8
	l0-7.3C302,393.1,301.2,391.8,300.2,391.2z"/>
<path class="st2" d="M300.5,408c-0.1-0.1-0.2-0.2-0.3-0.2l-2.8-1.6l-3.5-2c-0.5-0.3-1.1-0.4-1.7-0.4c-0.6,0-1.3,0.1-1.7,0.4l-3.5,2
	l-2.8,1.6c-0.1,0.1-0.2,0.2-0.3,0.2c-0.8,0.6-1.3,1.6-1.4,2.5c0,0.1,0,0.2,0,0.2v7.3c0,0.1,0,0.1,0,0.2c0.1,1.1,0.8,2.3,1.7,2.8
	l6.3,3.6c0.5,0.3,1.1,0.4,1.7,0.4c0.6,0,1.3-0.1,1.7-0.4l6.3-3.6c1-0.6,1.7-1.9,1.7-3v-7.3C302,409.8,301.3,408.7,300.5,408z"/>
<g class="st3">
	<path class="st2" d="M307.8,443.3c1.5,0,2.7,0.5,3.6,1.6s1.3,2.5,1.3,4.4s-0.4,3.4-1.3,4.5c-0.9,1.1-2,1.6-3.6,1.6
		c-0.8,0-1.5-0.1-2.1-0.4c-0.6-0.3-1.2-0.7-1.6-1.3H304l-0.4,1.5h-1.3v-16.6h1.8v4c0,0.9,0,1.7-0.1,2.4h0.1
		C304.9,443.8,306.1,443.3,307.8,443.3z M307.5,444.7c-1.2,0-2.1,0.3-2.6,1c-0.5,0.7-0.8,1.9-0.8,3.5s0.3,2.8,0.8,3.5
		s1.4,1.1,2.6,1.1c1.1,0,1.9-0.4,2.4-1.2c0.5-0.8,0.8-1.9,0.8-3.4c0-1.5-0.3-2.7-0.8-3.4C309.4,445.1,308.6,444.7,307.5,444.7z"/>
	<path class="st2" d="M313.8,443.5h1.9l2.6,6.7c0.6,1.5,0.9,2.6,1,3.3h0.1c0.1-0.4,0.3-1,0.6-1.9c0.3-0.9,1.3-3.6,2.9-8.1h1.9
		l-5,13.3c-0.5,1.3-1.1,2.2-1.7,2.8c-0.7,0.6-1.5,0.8-2.4,0.8c-0.5,0-1.1-0.1-1.6-0.2v-1.4c0.4,0.1,0.8,0.1,1.3,0.1
		c1.2,0,2.1-0.7,2.6-2l0.6-1.7L313.8,443.5z"/>
	<path class="st2" d="M332.6,455.1v-15.6h1.8v13.9h6.9v1.6H332.6z"/>
	<path class="st2" d="M343.9,455.1v-15.6h1.8v15.6H343.9z"/>
	<path class="st2" d="M362.2,455.1h-2.1l-8.5-13.1h-0.1c0.1,1.5,0.2,2.9,0.2,4.2v8.9H350v-15.6h2l8.5,13h0.1c0-0.2,0-0.8-0.1-1.8
		c0-1-0.1-1.8-0.1-2.2v-8.9h1.7V455.1z"/>
	<path class="st2" d="M366.5,439.6h4.4c2.1,0,3.6,0.3,4.5,0.9s1.4,1.6,1.4,2.9c0,0.9-0.3,1.7-0.8,2.3c-0.5,0.6-1.3,1-2.3,1.2v0.1
		c2.4,0.4,3.5,1.6,3.5,3.7c0,1.4-0.5,2.5-1.4,3.3c-0.9,0.8-2.3,1.2-3.9,1.2h-5.4V439.6z M368.3,446.2h3c1.3,0,2.2-0.2,2.8-0.6
		c0.6-0.4,0.8-1.1,0.8-2c0-0.9-0.3-1.5-0.9-1.9c-0.6-0.4-1.6-0.6-3-0.6h-2.7V446.2z M368.3,447.8v5.8h3.2c1.3,0,2.2-0.2,2.8-0.7
		s1-1.2,1-2.3c0-1-0.3-1.7-1-2.1c-0.6-0.5-1.6-0.7-3-0.7H368.3z"/>
	<path class="st2" d="M380.6,455.1v-15.6h1.8v15.6H380.6z"/>
	<path class="st2" d="M391.5,455.1h-1.8v-14h-4.9v-1.6h11.7v1.6h-4.9V455.1z"/>
</g>
</svg>
